<svg width="22" height="20" viewBox="0 0 22 20" fill="none" xmlns="http://www.w3.org/2000/svg">
<path d="M18.86 6.09C18.86 6.51 18.83 6.92 18.78 7.31C18.32 7.11 17.82 7 17.29 7C16.07 7 14.99 7.58999 14.32 8.48999C13.64 7.58999 12.56 7 11.34 7C9.29 7 7.63 8.66999 7.63 10.74C7.63 13.42 9.05 15.47 10.63 16.86C10.58 16.89 10.53 16.9 10.48 16.92C10.18 17.03 9.68 17.03 9.38 16.92C6.79 16.03 1 12.35 1 6.09C1 3.33 3.21999 1.10001 5.95999 1.10001C7.58999 1.10001 9.02999 1.88 9.92999 3.09C10.84 1.88 12.28 1.10001 13.9 1.10001C16.64 1.10001 18.86 3.33 18.86 6.09Z" stroke="#7A797D" stroke-width="1.5" stroke-linecap="round" stroke-linejoin="round"/>
<path d="M21 10.74C21 15.42 16.67 18.18 14.73 18.84C14.5 18.92 14.13 18.92 13.9 18.84C13.07 18.56 11.8 17.89 10.63 16.86C9.05 15.47 7.63 13.42 7.63 10.74C7.63 8.66999 9.29 7 11.34 7C12.56 7 13.64 7.58999 14.32 8.48999C14.99 7.58999 16.07 7 17.29 7C17.82 7 18.32 7.11 18.78 7.31C20.09 7.89 21 9.19999 21 10.74Z" stroke="#7A797D" stroke-width="1.5" stroke-linecap="round" stroke-linejoin="round"/>
</svg>
